<svg id="Capa_1" enable-background="new 0 0 512 512" height="512" viewBox="0 0 512 512" width="512" xmlns="http://www.w3.org/2000/svg"><g><circle cx="256" cy="195.75" r="54.207"/><path d="m256 279.957c-29.791 0-55.998-15.564-70.971-38.974h-185.029v271h512v-271h-185.029c-14.973 23.41-41.18 38.974-70.971 38.974zm-107.66 165.828h-68.061v-138.603h30v108.604h38.061zm49.816.046h-30v-138.695h30zm158.184-138.199h75.381v30h-45.381v23.851h42.035v30h-42.035v23.851h45.381v30h-75.381zm-63.194 139.62-25.269-.027-49.829-130.831 28.035-10.678 34.362 90.222 34.038-90.195 28.068 10.592z"/><path d="m110.172 22.926-19.369-22.909c-57.705 48.79-90.8 120.071-90.8 195.569h30c-.001-66.651 29.22-129.583 80.169-172.66z"/><path d="m90.252 195.585c0-48.882 21.431-95.037 58.798-126.63l-19.369-22.909c-44.123 37.306-69.429 91.811-69.429 149.54h30z"/><path d="m150.502 195.585c0-31.112 13.641-60.489 37.424-80.6l-19.37-22.908c-30.539 25.823-48.054 63.55-48.054 103.508z"/><path d="m482 195.585h30c0-75.498-33.095-146.779-90.8-195.569l-19.369 22.909c50.948 43.078 80.169 106.01 80.169 172.66z"/><path d="m421.75 195.585h30c0-57.728-25.306-112.233-69.429-149.54l-19.369 22.909c37.367 31.595 58.798 77.75 58.798 126.631z"/><path d="m361.5 195.585h30c0-39.958-17.515-77.686-48.054-103.508l-19.37 22.908c23.783 20.111 37.424 49.489 37.424 80.6z"/></g></svg>